<svg id="Layer_3" enable-background="new 0 0 64 64" height="512" viewBox="0 0 64 64" width="512" xmlns="http://www.w3.org/2000/svg"><g><path d="m12 2h26v20h-26z" fill="#b4e05d"/><path d="m12 22h9.386c4.089-3.117 6.739-8.024 6.739-13.562 0-2.279-.455-4.45-1.266-6.438h-14.859z" fill="#c8ec6c"/><path d="m16 22c0-4.971 4.029-9 9-9s9 4.029 9 9z" fill="#668831"/><path d="m27.403 13.334c-.766-.212-1.569-.334-2.403-.334-4.971 0-9 4.029-9 9h5.386c2.831-2.159 4.971-5.171 6.017-8.666z" fill="#94c049"/><path d="m38 37v-26l6-6 18 18-14.142 14z" fill="#739937"/><path d="m2 22h42v40h-42z" fill="#f5ba5b"/><path d="m2 52.487c.084.001.166.013.25.013 11.46 0 20.75-9.29 20.75-20.75 0-3.526-.885-6.842-2.437-9.75h-18.563z" fill="#f8cf6a"/><path d="m8 42c0-5.523 4.477-10 10-10s10 4.477 10 10-4.477 10-10 10-10-4.477-10-10" fill="#ecfa97"/><path d="m18 32c-5.523 0-10 4.477-10 10 0 3.297 1.602 6.211 4.063 8.033 6.079-3.269 10.321-9.484 10.859-16.732-1.454-.824-3.131-1.301-4.922-1.301z" fill="#f0fec5"/><path d="m48 23-4-1v40l4-1z" fill="#f19846"/><path d="m50 47h-11c-2.761 0-5-2.239-5-5 0-2.761 2.239-5 5-5h11z" fill="#d76e31"/><circle cx="39" cy="42" fill="#ecfa97" r="2"/><path d="m22 40v-.5c0-1.758-1.308-3.204-3-3.449v-2.051h-2v2.051c-1.692.245-3 1.691-3 3.449 0 1.93 1.57 3.5 3.5 3.5h1c.827 0 1.5.673 1.5 1.5s-.673 1.5-1.5 1.5h-1c-.827 0-1.5-.673-1.5-1.5h-2c0 1.758 1.308 3.204 3 3.449v2.051h2v-2.051c1.692-.245 3-1.691 3-3.449 0-1.93-1.57-3.5-3.5-3.5h-1c-.827 0-1.5-.673-1.5-1.5s.673-1.5 1.5-1.5h1c.827 0 1.5.673 1.5 1.5v.5z" fill="#d76e31"/><g><path d="m17 11h-2v-6c0-.553.447-1 1-1h6v2h-5z" fill="#668831"/></g></g></svg>